<svg width="47" height="22" viewBox="0 0 47 22" fill="none" xmlns="http://www.w3.org/2000/svg">
<g filter="url(#filter0_d_0_155)">
<path d="M6.75098 15.6201H14.0723V17H4.75586V15.7344L11.7695 5.5918H4.87012V4.20312H13.791V5.44238L6.75098 15.6201ZM18.0713 17H16.3838V4.20312H18.0713V17ZM30.5781 12.9395C30.4199 14.293 29.9189 15.3389 29.0752 16.0771C28.2373 16.8096 27.1211 17.1758 25.7266 17.1758C24.2148 17.1758 23.002 16.6338 22.0879 15.5498C21.1797 14.4658 20.7256 13.0156 20.7256 11.1992V9.96875C20.7256 8.7793 20.9365 7.7334 21.3584 6.83105C21.7861 5.92871 22.3896 5.2373 23.1689 4.75684C23.9482 4.27051 24.8506 4.02734 25.876 4.02734C27.2354 4.02734 28.3252 4.4082 29.1455 5.16992C29.9658 5.92578 30.4434 6.97461 30.5781 8.31641H28.8818C28.7354 7.29688 28.416 6.55859 27.9238 6.10156C27.4375 5.64453 26.7549 5.41602 25.876 5.41602C24.7979 5.41602 23.9512 5.81445 23.3359 6.61133C22.7266 7.4082 22.4219 8.54199 22.4219 10.0127V11.252C22.4219 12.6406 22.7119 13.7451 23.292 14.5654C23.8721 15.3857 24.6836 15.7959 25.7266 15.7959C26.6641 15.7959 27.3818 15.585 27.8799 15.1631C28.3838 14.7354 28.7178 13.9941 28.8818 12.9395H30.5781ZM42.7334 11.0146C42.7334 12.2686 42.5225 13.3643 42.1006 14.3018C41.6787 15.2334 41.0811 15.9453 40.3076 16.4375C39.5342 16.9297 38.6318 17.1758 37.6006 17.1758C36.5928 17.1758 35.6992 16.9297 34.9199 16.4375C34.1406 15.9395 33.5342 15.2334 33.1006 14.3193C32.6729 13.3994 32.4531 12.3359 32.4414 11.1289V10.2061C32.4414 8.97559 32.6553 7.88867 33.083 6.94531C33.5107 6.00195 34.1143 5.28125 34.8936 4.7832C35.6787 4.2793 36.5752 4.02734 37.583 4.02734C38.6084 4.02734 39.5107 4.27637 40.29 4.77441C41.0752 5.2666 41.6787 5.98438 42.1006 6.92773C42.5225 7.86523 42.7334 8.95801 42.7334 10.2061V11.0146ZM41.0547 10.1885C41.0547 8.6709 40.75 7.50781 40.1406 6.69922C39.5312 5.88477 38.6787 5.47754 37.583 5.47754C36.5166 5.47754 35.6758 5.88477 35.0605 6.69922C34.4512 7.50781 34.1377 8.63281 34.1201 10.0742V11.0146C34.1201 12.4854 34.4277 13.6426 35.043 14.4863C35.6641 15.3242 36.5166 15.7432 37.6006 15.7432C38.6904 15.7432 39.5342 15.3477 40.1318 14.5566C40.7295 13.7598 41.0371 12.6201 41.0547 11.1377V10.1885Z" fill="#666666"/>
</g>
<defs>
<filter id="filter0_d_0_155" x="0.755859" y="0.0273438" width="45.9775" height="21.1484" filterUnits="userSpaceOnUse" color-interpolation-filters="sRGB">
<feFlood flood-opacity="0" result="BackgroundImageFix"/>
<feColorMatrix in="SourceAlpha" type="matrix" values="0 0 0 0 0 0 0 0 0 0 0 0 0 0 0 0 0 0 127 0" result="hardAlpha"/>
<feOffset/>
<feGaussianBlur stdDeviation="2"/>
<feColorMatrix type="matrix" values="0 0 0 0 0.898039 0 0 0 0 0.176471 0 0 0 0 0.152941 0 0 0 1 0"/>
<feBlend mode="normal" in2="BackgroundImageFix" result="effect1_dropShadow_0_155"/>
<feBlend mode="normal" in="SourceGraphic" in2="effect1_dropShadow_0_155" result="shape"/>
</filter>
</defs>
</svg>
